#!OML:ASF E:/inclinewalkrobotboard/Project1/Captureday1/Session1/subject1.ASF
:FULLY-SPECIFIED
:DEGREES
313
root 0 0 0 -2.6811151567027207 0.09529090384990546 0.09959397737911752
lowerback 10.408515099957366 -0.8079363275595773 -1.8316893961976004
upperback 0.4615053184015214 -1.1721327096070824 1.7815604961701368
thorax -5.2611537862653215 -0.5177113565174869 3.05347305529555
lowerneck -17.416623506406378 -2.6700109243544468 -1.9594460428597253
upperneck 19.885219201273483 -3.2358526345228413 0.1645043185471753
head 9.136160057539067 -1.6175670764840024 -0.04629443407459588
rclavicle -4.611076731291242E-16 -3.0820109549236256E-16
rhumerus -28.817024172312735 -17.78127314820071 -77.97995200787736
rradius 26.919911498732695
rwrist 4.45249708651796
rhand -17.726151685673862 22.290657847659062
rfingers 7.1250200000000214
rthumb 8.528314228288032 -7.52389580485718
lclavicle -7.482273032409796E-16 -1.9362987070525878E-16
lhumerus -29.000722271818265 -2.963217758591849 82.20174043861925
lradius 35.12018152174026
lwrist 5.9480491980558465
lhand -24.786708719967258 24.38215988710317
lfingers 7.123186410352449
lthumb 1.6933145692114167 53.73232725897253
rfemur -5.731633679727894 6.877876331106364 29.642808019932488
rtibia 30.760788851887213
rfoot -12.20988542768012 -6.038520165037179
rtoes 2.9324347713412786
lfemur -10.762626296039189 -0.1136159526859144 -17.38873684033793
ltibia 46.76467500951625
lfoot -0.6922199878778024 -7.668914248883215
ltoes -6.322277921177954
314
root 0 0 0 -2.593387343477031 -0.09582573674585859 -0.9167581956749647
lowerback 10.443530174860188 -0.4392366175121186 -0.7265851453011857
upperback 0.39744975114225944 -0.5516367462132039 1.851413424202538
thorax -5.345188631626963 -0.23045412927715897 2.420557623713906
lowerneck -17.700097954675435 -2.7269855378641545 -1.7622344363046096
upperneck 20.04043771064363 -3.315698375197277 -0.011538695536599697
head 9.23769426620526 -1.647125976810259 -0.15532594062108052
rclavicle -4.590121103717694E-16 -3.169872038526158E-16
rhumerus -28.889155156586842 -17.84551782013874 -78.00011021419931
rradius 26.851789520699125
rwrist 4.436966051643613
rhand -17.713130784460617 22.34317946372209
rfingers 7.125020000000022
rthumb 8.539676279775136 -7.472024512470945
lclavicle -7.357273570869701E-16 -2.0198364947593487E-16
lhumerus -29.12126452051477 -2.8330450386361896 82.21205771126746
lradius 34.868410691455665
lwrist 5.925170354480619
lhand -24.86451510860224 24.336864730777105
lfingers 7.1232416153330185
lthumb 1.6195079876072676 53.70885979547076
rfemur -4.302565610552275 7.052857655974723 30.518041755294043
rtibia 29.66973817155855
rfoot -12.809871825422015 -5.820570578100899
rtoes 3.1466087553873816
lfemur -17.277955675772876 0.6729151650756591 -13.94488580294534
ltibia 53.93848622116495
lfoot 3.459746227790582 -8.887081507065364
ltoes -6.281758367552186
315
root 0 0 0 -2.4700364788889098 -0.735813553011722 -2.32769617100049
lowerback 10.478740248741172 0.11841111376391977 0.8211105410100736
upperback 0.36087431106126555 0.36844293956036506 1.8952237695148915
thorax -5.396721252463729 0.19428013079035686 1.4731010170464227
lowerneck -17.830048918234183 -2.819277258499904 -1.5891247435172957
upperneck 20.08339415967971 -3.4602337940873293 -0.09357386954302083
head 9.281006405493923 -1.7016433656528742 -0.23579661104954974
rclavicle -4.619005278423824E-16 -3.258153712970924E-16
rhumerus -28.880078049701922 -17.82394987674291 -78.00749270820515
rradius 26.86598353546278
rwrist 4.436909070048082
rhand -17.711516009046065 22.334626382559918
rfingers 7.1250200000000214
rthumb 8.539478184020972 -7.479875175197694
lclavicle -7.278139359928404E-16 -2.1004295435125235E-16
lhumerus -29.22557032681463 -2.7159971701042345 82.21910899819136
lradius 34.6413942454181
lwrist 5.905899503865399
lhand -24.932132149202225 24.298204857097588
lfingers 7.123310220309153
lthumb 1.554947453350172 53.68966568939611
rfemur -3.213305545947854 7.360218188385193 31.116141329208578
rtibia 28.011140477582373
rfoot -13.645874488540251 -5.808808823728252
rtoes 2.933059504046315
lfemur -20.359858704563845 0.81149767275982 -12.417541601635069
ltibia 55.639178942749275
lfoot 4.468926179468124 -8.564180421804489
ltoes -6.010027079071709
316
root 0 0 0 -2.331244755404142 -1.9301106493472915 -3.8867693051176815
lowerback 10.500158592619425 0.8128479707083104 2.549573158892308
upperback 0.36921448217861874 1.4852981195960275 1.8795232510873396
thorax -5.391163150316862 0.7073156182064627 0.33573581619195636
lowerneck -17.725844283792775 -2.9535498415518076 -1.4960320216833054
upperneck 19.926085652764716 -3.6847385779328015 0.007077476371389224
head 9.223304081183073 -1.790766622012752 -0.24412122276984638
rclavicle -4.793107917604924E-16 -3.2265989024053495E-16
rhumerus -28.701952240190337 -17.643267537468752 -77.98023499886494
rradius 27.040082366577348
rwrist 4.4700038655199315
rhand -17.738237127689715 22.203480275379544
rfingers 7.12502000000002
rthumb 8.51367883791082 -7.608325807229821
lclavicle -7.309414678245458E-16 -2.1169702027331695E-16
lhumerus -29.334514531587 -2.5884495285863913 82.22449836602503
lradius 34.4012190717124
lwrist 5.885231093258211
lhand -25.002431024906137 24.2576737348275
lfingers 7.123383772660015
lthumb 1.4891992418166993 53.66950811639202
rfemur -2.715287565013483 7.533485921713411 31.359990050808396
rtibia 27.15059681189485
rfoot -14.088310758056751 -5.831599840205685
rtoes 2.7715193837614738
lfemur -21.148376713098333 0.5134334150579338 -12.202879359726797
ltibia 53.57148471967529
lfoot 3.3073112338577957 -7.1736222525335975
ltoes -5.562196384326155
317
root 0 0 0 -2.209686796810269 -3.5158275380665938 -5.285466346056718
lowerback 10.499909440706634 1.5310434646993833 4.109945410260005
upperback 0.41463118846917846 2.6098176892732043 1.7964163236548996
thorax -5.331015395000627 1.2208084922605031 -0.7828014616860369
lowerneck -17.423724537755167 -3.11786860648502 -1.5008569776537186
upperneck 19.595356496556665 -3.9675993154693354 0.29019270235114547
head 9.072920272946714 -1.9087302011320018 -0.1711017416062246
rclavicle -4.967839666108706E-16 -3.096959034216715E-16
rhumerus -28.558486311383067 -17.504372913930133 -77.95629997342981
rradius 27.176510123480586
rwrist 4.496601226696033
rhand -17.761842240585203 22.100431147440943
rfingers 7.125020000000019
rthumb 8.492014946925833 -7.709269531565354
lclavicle -7.274475759136893E-16 -2.063762274551646E-16
lhumerus -29.549854542742764 -2.350682649134349 82.23953615340257
lradius 33.94696683106962
lwrist 5.841048037252777
lhand -25.13720971231409 24.176216148797234
lfingers 7.123481882117379
lthumb 1.3618959893199776 53.631168542857324
rfemur -2.5008789022178455 7.587451051808992 31.468636963594303
rtibia 26.8690834793712
rfoot -14.234341442526596 -5.823863166725879
rtoes 2.727064119938742
lfemur -21.194199325166352 0.018227309311234174 -12.480605973989281
ltibia 49.854117828668016
lfoot 1.343572228910194 -5.353303590155667
ltoes -4.93945376469507
